<svg width="150" height="32" viewBox="0 0 655 142" fill="none" xmlns="http://www.w3.org/2000/svg">
<path d="M19 112H0V30.7002H19V112ZM86 112H62L39 81L50 62L86 112Z" fill="#10181B"/>
<path d="M57 22L4 112H26L79 22H57Z" fill="#10B132"/>
<path d="M123.219 113.8C114.819 113.8 107.469 111.9 101.169 108.1C94.8691 104.3 89.9691 99.15 86.4691 92.65C82.9691 86.15 81.2191 78.95 81.2191 71.05C81.2191 62.85 82.9691 55.6 86.4691 49.3C90.0691 42.9 94.9191 37.85 101.019 34.15C107.219 30.45 114.119 28.6 121.719 28.6C128.119 28.6 133.719 29.65 138.519 31.75C143.419 33.85 147.569 36.75 150.969 40.45C154.369 44.15 156.969 48.4 158.769 53.2C160.569 57.9 161.469 63 161.469 68.5C161.469 69.9 161.369 71.35 161.169 72.85C161.069 74.35 160.819 75.65 160.419 76.75H97.4191V61.75H149.319L140.019 68.8C140.919 64.2 140.669 60.1 139.269 56.5C137.969 52.9 135.769 50.05 132.669 47.95C129.669 45.85 126.019 44.8 121.719 44.8C117.619 44.8 113.969 45.85 110.769 47.95C107.569 49.95 105.119 52.95 103.419 56.95C101.819 60.85 101.219 65.6 101.619 71.2C101.219 76.2 101.869 80.65 103.569 84.55C105.369 88.35 107.969 91.3 111.369 93.4C114.869 95.5 118.869 96.55 123.369 96.55C127.869 96.55 131.669 95.6 134.769 93.7C137.969 91.8 140.469 89.25 142.269 86.05L158.169 93.85C156.569 97.75 154.069 101.2 150.669 104.2C147.269 107.2 143.219 109.55 138.519 111.25C133.919 112.95 128.819 113.8 123.219 113.8ZM182.215 142L197.515 103.75L198.415 120.25L162.865 30.4H184.015L208.915 96.7H201.415L226.165 30.4H247.465L203.365 142H182.215ZM283.305 113.8C274.605 113.8 267.005 111.75 260.505 107.65C254.105 103.45 249.705 97.8 247.305 90.7L262.005 83.65C264.105 88.25 267.005 91.85 270.705 94.45C274.505 97.05 278.705 98.35 283.305 98.35C286.905 98.35 289.755 97.55 291.855 95.95C293.955 94.35 295.005 92.25 295.005 89.65C295.005 88.05 294.555 86.75 293.655 85.75C292.855 84.65 291.705 83.75 290.205 83.05C288.805 82.25 287.255 81.6 285.555 81.1L272.205 77.35C265.305 75.35 260.055 72.3 256.455 68.2C252.955 64.1 251.205 59.25 251.205 53.65C251.205 48.65 252.455 44.3 254.955 40.6C257.555 36.8 261.105 33.85 265.605 31.75C270.205 29.65 275.455 28.6 281.355 28.6C289.055 28.6 295.855 30.45 301.755 34.15C307.655 37.85 311.855 43.05 314.355 49.75L299.355 56.8C297.955 53.1 295.605 50.15 292.305 47.95C289.005 45.75 285.305 44.65 281.205 44.65C277.905 44.65 275.305 45.4 273.405 46.9C271.505 48.4 270.555 50.35 270.555 52.75C270.555 54.25 270.955 55.55 271.755 56.65C272.555 57.75 273.655 58.65 275.055 59.35C276.555 60.05 278.255 60.7 280.155 61.3L293.205 65.2C299.905 67.2 305.055 70.2 308.655 74.2C312.355 78.2 314.205 83.1 314.205 88.9C314.205 93.8 312.905 98.15 310.305 101.95C307.705 105.65 304.105 108.55 299.505 110.65C294.905 112.75 289.505 113.8 283.305 113.8ZM360.506 112.9C351.306 112.9 344.156 110.4 339.056 105.4C334.056 100.3 331.556 93.15 331.556 83.95V47.95H317.456V30.4H318.956C322.956 30.4 326.056 29.35 328.256 27.25C330.456 25.15 331.556 22.1 331.556 18.1V11.8H351.206V30.4H369.956V47.95H351.206V82.9C351.206 85.6 351.656 87.9 352.556 89.8C353.556 91.7 355.056 93.15 357.056 94.15C359.156 95.15 361.806 95.65 365.006 95.65C365.706 95.65 366.506 95.6 367.406 95.5C368.406 95.4 369.356 95.3 370.256 95.2V112C368.856 112.2 367.256 112.4 365.456 112.6C363.656 112.8 362.006 112.9 360.506 112.9ZM418.437 113.8C410.437 113.8 403.137 111.95 396.537 108.25C390.037 104.55 384.837 99.5 380.937 93.1C377.137 86.7 375.237 79.4 375.237 71.2C375.237 63 377.137 55.7 380.937 49.3C384.837 42.9 390.037 37.85 396.537 34.15C403.037 30.45 410.337 28.6 418.437 28.6C426.437 28.6 433.687 30.45 440.187 34.15C446.687 37.85 451.837 42.9 455.637 49.3C459.537 55.6 461.487 62.9 461.487 71.2C461.487 79.4 459.537 86.7 455.637 93.1C451.737 99.5 446.537 104.55 440.037 108.25C433.537 111.95 426.337 113.8 418.437 113.8ZM418.437 95.8C422.837 95.8 426.687 94.75 429.987 92.65C433.387 90.55 436.037 87.65 437.937 83.95C439.937 80.15 440.937 75.9 440.937 71.2C440.937 66.4 439.937 62.2 437.937 58.6C436.037 54.9 433.387 52 429.987 49.9C426.687 47.7 422.837 46.6 418.437 46.6C413.937 46.6 409.987 47.7 406.587 49.9C403.187 52 400.487 54.9 398.487 58.6C396.587 62.2 395.637 66.4 395.637 71.2C395.637 75.9 396.587 80.15 398.487 83.95C400.487 87.65 403.187 90.55 406.587 92.65C409.987 94.75 413.937 95.8 418.437 95.8ZM470.388 112V30.4H488.838V46.45L487.338 43.6C489.238 38.7 492.338 35 496.638 32.5C501.038 29.9 506.138 28.6 511.938 28.6C517.938 28.6 523.238 29.9 527.838 32.5C532.538 35.1 536.188 38.75 538.788 43.45C541.388 48.05 542.688 53.4 542.688 59.5V112H523.038V64.15C523.038 60.55 522.338 57.45 520.938 54.85C519.538 52.25 517.588 50.25 515.088 48.85C512.688 47.35 509.838 46.6 506.538 46.6C503.338 46.6 500.488 47.35 497.988 48.85C495.488 50.25 493.538 52.25 492.138 54.85C490.738 57.45 490.038 60.55 490.038 64.15V112H470.388ZM592.004 113.8C583.604 113.8 576.254 111.9 569.954 108.1C563.654 104.3 558.754 99.15 555.254 92.65C551.754 86.15 550.004 78.95 550.004 71.05C550.004 62.85 551.754 55.6 555.254 49.3C558.854 42.9 563.704 37.85 569.804 34.15C576.004 30.45 582.904 28.6 590.504 28.6C596.904 28.6 602.504 29.65 607.304 31.75C612.204 33.85 616.354 36.75 619.754 40.45C623.154 44.15 625.754 48.4 627.554 53.2C629.354 57.9 630.254 63 630.254 68.5C630.254 69.9 630.154 71.35 629.954 72.85C629.854 74.35 629.604 75.65 629.204 76.75H566.204V61.75H618.104L608.804 68.8C609.704 64.2 609.454 60.1 608.054 56.5C606.754 52.9 604.554 50.05 601.454 47.95C598.454 45.85 594.804 44.8 590.504 44.8C586.404 44.8 582.754 45.85 579.554 47.95C576.354 49.95 573.904 52.95 572.204 56.95C570.604 60.85 570.004 65.6 570.404 71.2C570.004 76.2 570.654 80.65 572.354 84.55C574.154 88.35 576.754 91.3 580.154 93.4C583.654 95.5 587.654 96.55 592.154 96.55C596.654 96.55 600.454 95.6 603.554 93.7C606.754 91.8 609.254 89.25 611.054 86.05L626.954 93.85C625.354 97.75 622.854 101.2 619.454 104.2C616.054 107.2 612.004 109.55 607.304 111.25C602.704 112.95 597.604 113.8 592.004 113.8Z" fill="#10181B"/>
</svg>
